<svg width="17" height="17" viewBox="0 0 17 17" fill="none" xmlns="http://www.w3.org/2000/svg">
<path fill-rule="evenodd" clip-rule="evenodd" d="M6.67139 12.5613C3.15152 12.5613 0.298096 9.74937 0.298096 6.28066C0.298096 2.81195 3.15152 0 6.67139 0C10.1913 0 13.0447 2.81195 13.0447 6.28066C13.0447 7.77037 12.5184 9.13894 11.639 10.2157L16.6325 15.1366C16.9015 15.4018 16.9015 15.8317 16.6325 16.0969C16.3634 16.362 15.9271 16.362 15.6581 16.0969L10.6646 11.1759C9.57201 12.0426 8.18317 12.5613 6.67139 12.5613ZM6.6713 11.2026C9.43013 11.2026 11.6666 8.99866 11.6666 6.27996C11.6666 3.56125 9.43013 1.3573 6.6713 1.3573C3.91246 1.3573 1.67599 3.56125 1.67599 6.27996C1.67599 8.99866 3.91246 11.2026 6.6713 11.2026Z" fill="#C4C4C4"/>
</svg>
